<?xml version="1.0" encoding="utf-8"?>
<!-- Generator: Adobe Illustrator 16.0.0, SVG Export Plug-In . SVG Version: 6.00 Build 0)  -->
<!DOCTYPE svg PUBLIC "-//W3C//DTD SVG 1.1//EN" "http://www.w3.org/Graphics/SVG/1.1/DTD/svg11.dtd">
<svg version="1.1" id="Layer_1" xmlns="http://www.w3.org/2000/svg" xmlns:xlink="http://www.w3.org/1999/xlink" x="0px" y="0px"
	 width="24px" height="24px" viewBox="0 0 24 24" enable-background="new 0 0 24 24" xml:space="preserve">
<g>
	<path fill="none" d="M5.938,9.178c-0.313,0-0.558,0.235-0.558,0.537c0,0.309,0.244,0.55,0.558,0.55c0.308,0,0.559-0.247,0.559-0.55
		C6.496,9.42,6.245,9.178,5.938,9.178z"/>
	<path d="M5.938,9.178c-0.313,0-0.558,0.235-0.558,0.537c0,0.309,0.244,0.55,0.558,0.55c0.308,0,0.559-0.247,0.559-0.55
		C6.496,9.42,6.245,9.178,5.938,9.178z"/>
	<path d="M12.22,8.422c-1.977,0-3.586,1.593-3.586,3.554s1.609,3.557,3.586,3.557c1.979,0,3.587-1.596,3.587-3.557
		S14.198,8.422,12.22,8.422z M12.22,14.494c-1.398,0-2.538-1.129-2.538-2.519c0-1.388,1.14-2.516,2.538-2.516
		c1.401,0,2.539,1.128,2.539,2.516C14.759,13.365,13.621,14.494,12.22,14.494z"/>
	<g>
		<g>
			<path d="M19.891,1.934c0.002,0.482,0.009,1.646,0.009,1.646s-0.283,0.002-0.717,0.006c-1.242,0.007-3.505,0.02-4.426,0.027
				c0,0-0.252-0.067-0.248,0.312c0.002,0.381,0.021,3.469,0.023,3.737c0.001,0.272,0.208,0.264,0.208,0.264
				c0.896-0.006,3.235-0.018,4.438-0.025c0.388-0.002,0.642-0.004,0.642-0.004s0.007,0.934,0.011,1.521
				c0.002,0.586,0.44,0.14,0.44,0.14s3.283-3.214,3.624-3.563c0.253-0.254-0.029-0.491-0.029-0.491L20.31,1.892
				C20.31,1.892,19.889,1.45,19.891,1.934z"/>
		</g>
	</g>
	<g>
		<g>
			<path d="M4.109,14.09c-0.002,0.482-0.009,1.646-0.009,1.646s0.283,0.002,0.717,0.006c1.242,0.007,3.505,0.02,4.426,0.027
				c0,0,0.252-0.067,0.248,0.312c-0.002,0.381-0.021,3.469-0.023,3.737c-0.001,0.272-0.208,0.264-0.208,0.264
				c-0.896-0.006-3.235-0.018-4.438-0.025c-0.388-0.002-0.642-0.004-0.642-0.004s-0.007,0.934-0.011,1.521
				c-0.002,0.586-0.44,0.14-0.44,0.14S0.446,18.5,0.105,18.151c-0.253-0.254,0.029-0.491,0.029-0.491l3.556-3.612
				C3.69,14.048,4.111,13.606,4.109,14.09z"/>
		</g>
	</g>
	<g>
		<path d="M3.12,13.486c0.146-0.152,0.464-0.423,0.87-0.423h0.332l0.303,0.263c0.19,0.19,0.286,0.448,0.284,0.767l-0.004,0.85
			c1.008,0.006,2.609,0.015,3.671,0.022c-0.68-0.816-1.104-1.85-1.104-2.989c0-2.601,2.13-4.716,4.748-4.716
			c0.531,0,1.034,0.107,1.512,0.268c-0.005-0.551-0.016-2.47-0.021-3.275h-3.38c-0.614,0-1.174,0.345-1.62,1.001
			C8.704,5.265,8.703,5.275,8.697,5.287C8.69,5.298,8.68,5.305,8.674,5.316L8.072,6.501H7.658V6.336
			c0-0.084-0.021-0.164-0.053-0.236C7.494,5.568,7.052,5.146,6.498,5.046C6.428,5.015,6.351,4.999,6.27,4.999H5.562
			c-0.082,0-0.159,0.018-0.23,0.047c-0.568,0.111-1.01,0.581-1.067,1.169C4.257,6.252,4.24,6.283,4.24,6.319L4.233,6.549
			c-1.313,0.221-1.53,1.212-1.53,1.834v5.527L3.12,13.486z M5.938,8.016c0.949,0,1.721,0.762,1.721,1.699
			c0,0.944-0.771,1.712-1.721,1.712s-1.72-0.768-1.72-1.712C4.218,8.777,4.988,8.016,5.938,8.016z"/>
		<path d="M20.83,10.129c-0.137,0.14-0.444,0.392-0.847,0.392c-0.457,0-0.951-0.345-0.953-1.1l-0.005-0.72l-3.384,0.02
			c0.817,0.848,1.327,1.991,1.327,3.255c0,2.602-2.13,4.719-4.749,4.719c-0.688,0-1.339-0.153-1.93-0.417
			c-0.002,0.378-0.007,1.172-0.012,1.92h8.881c1.339,0,2.138-0.747,2.138-2V9.672C21.016,9.947,20.83,10.129,20.83,10.129z"/>
	</g>
</g>
</svg>
